<svg width="18" height="18" viewBox="0 0 24 24" fill="none" xmlns="http://www.w3.org/2000/svg">
<path fill-rule="evenodd" clip-rule="evenodd" d="M8.5 3C7.83696 3 7.20107 3.26339 6.73223 3.73223C6.26339 4.20107 6 4.83696 6 5.5C6 6.16304 6.26339 6.79893 6.73223 7.26777C7.20107 7.73661 7.83696 8 8.5 8H11V3H8.5ZM5.31802 2.31802C6.16193 1.47411 7.30653 1 8.5 1H12C12.5523 1 13 1.44772 13 2V9C13 9.55228 12.5523 10 12 10H8.5C7.30653 10 6.16193 9.52589 5.31802 8.68198C4.47411 7.83807 4 6.69347 4 5.5C4 4.30653 4.47411 3.16193 5.31802 2.31802Z" fill="black"/>
<path fill-rule="evenodd" clip-rule="evenodd" d="M11 2C11 1.44772 11.4477 1 12 1H15.5C16.0909 1 16.6761 1.1164 17.2221 1.34254C17.768 1.56869 18.2641 1.90016 18.682 2.31802C19.0998 2.73588 19.4313 3.23196 19.6575 3.77792C19.8836 4.32389 20 4.90905 20 5.5C20 6.09095 19.8836 6.67611 19.6575 7.22208C19.4313 7.76804 19.0998 8.26412 18.682 8.68198C18.2641 9.09984 17.768 9.43131 17.2221 9.65746C16.6761 9.8836 16.0909 10 15.5 10H12C11.4477 10 11 9.55228 11 9V2ZM13 3V8H15.5C15.8283 8 16.1534 7.93534 16.4567 7.8097C16.76 7.68406 17.0356 7.49991 17.2678 7.26777C17.4999 7.03562 17.6841 6.76002 17.8097 6.45671C17.9353 6.15339 18 5.8283 18 5.5C18 5.1717 17.9353 4.84661 17.8097 4.54329C17.6841 4.23998 17.4999 3.96438 17.2678 3.73223C17.0356 3.50009 16.76 3.31594 16.4567 3.1903C16.1534 3.06466 15.8283 3 15.5 3H13Z" fill="black"/>
<path fill-rule="evenodd" clip-rule="evenodd" d="M15.5 10C15.1717 10 14.8466 10.0647 14.5433 10.1903C14.24 10.3159 13.9644 10.5001 13.7322 10.7322C13.5001 10.9644 13.3159 11.24 13.1903 11.5433C13.0647 11.8466 13 12.1717 13 12.5C13 12.8283 13.0647 13.1534 13.1903 13.4567C13.3159 13.76 13.5001 14.0356 13.7322 14.2678C13.9644 14.4999 14.24 14.6841 14.5433 14.8097C14.8466 14.9353 15.1717 15 15.5 15C15.8283 15 16.1534 14.9353 16.4567 14.8097C16.76 14.6841 17.0356 14.4999 17.2678 14.2678C17.4999 14.0356 17.6841 13.76 17.8097 13.4567C17.9353 13.1534 18 12.8283 18 12.5C18 12.1717 17.9353 11.8466 17.8097 11.5433C17.6841 11.24 17.4999 10.9644 17.2678 10.7322C17.0356 10.5001 16.76 10.3159 16.4567 10.1903C16.1534 10.0647 15.8283 10 15.5 10ZM13.7779 8.34254C14.3239 8.1164 14.9091 8 15.5 8C16.0909 8 16.6761 8.1164 17.2221 8.34254C17.768 8.56869 18.2641 8.90016 18.682 9.31802C19.0998 9.73588 19.4313 10.232 19.6575 10.7779C19.8836 11.3239 20 11.9091 20 12.5C20 13.0909 19.8836 13.6761 19.6575 14.2221C19.4313 14.768 19.0998 15.2641 18.682 15.682C18.2641 16.0998 17.768 16.4313 17.2221 16.6575C16.6761 16.8836 16.0909 17 15.5 17C14.9091 17 14.3239 16.8836 13.7779 16.6575C13.232 16.4313 12.7359 16.0998 12.318 15.682C11.9002 15.2641 11.5687 14.768 11.3425 14.2221C11.1164 13.6761 11 13.0909 11 12.5C11 11.9091 11.1164 11.3239 11.3425 10.7779C11.5687 10.232 11.9002 9.73588 12.318 9.31802C12.7359 8.90016 13.232 8.56869 13.7779 8.34254Z" fill="black"/>
<path fill-rule="evenodd" clip-rule="evenodd" d="M8.5 17C7.83696 17 7.20107 17.2634 6.73223 17.7322C6.26339 18.2011 6 18.837 6 19.5C6 20.163 6.26339 20.7989 6.73223 21.2678C7.20107 21.7366 7.83696 22 8.5 22C9.16304 22 9.79893 21.7366 10.2678 21.2678C10.7366 20.7989 11 20.163 11 19.5V17H8.5ZM5.31802 16.318C6.16193 15.4741 7.30653 15 8.5 15H12C12.5523 15 13 15.4477 13 16V19.5C13 20.6935 12.5259 21.8381 11.682 22.682C10.8381 23.5259 9.69347 24 8.5 24C7.30653 24 6.16193 23.5259 5.31802 22.682C4.47411 21.8381 4 20.6935 4 19.5C4 18.3065 4.47411 17.1619 5.31802 16.318Z" fill="black"/>
<path fill-rule="evenodd" clip-rule="evenodd" d="M8.5 10C7.83696 10 7.20107 10.2634 6.73223 10.7322C6.26339 11.2011 6 11.837 6 12.5C6 13.163 6.26339 13.7989 6.73223 14.2678C7.20107 14.7366 7.83696 15 8.5 15H11V10H8.5ZM5.31802 9.31802C6.16193 8.47411 7.30653 8 8.5 8H12C12.5523 8 13 8.44772 13 9V16C13 16.5523 12.5523 17 12 17H8.5C7.30653 17 6.16193 16.5259 5.31802 15.682C4.47411 14.8381 4 13.6935 4 12.5C4 11.3065 4.47411 10.1619 5.31802 9.31802Z" fill="black"/>
</svg>
