<svg width="18" height="18" viewBox="0 0 18 18" fill="none" xmlns="http://www.w3.org/2000/svg">
<rect width="18" height="18" fill="white"/>
<path d="M6.02056 14.1884C6.02056 14.2587 5.9371 14.3149 5.83185 14.3149C5.7121 14.3255 5.62863 14.2692 5.62863 14.1884C5.62863 14.1181 5.7121 14.0618 5.81734 14.0618C5.92621 14.0513 6.02056 14.1075 6.02056 14.1884ZM4.89194 14.0302C4.86653 14.1005 4.93911 14.1813 5.04798 14.2024C5.14234 14.2376 5.25121 14.2024 5.27298 14.1321C5.29476 14.0618 5.22581 13.981 5.11694 13.9493C5.02258 13.9247 4.91734 13.9599 4.89194 14.0302ZM6.49597 13.9704C6.39073 13.995 6.31814 14.0618 6.32903 14.1427C6.33992 14.213 6.43427 14.2587 6.54315 14.2341C6.64839 14.2095 6.72097 14.1427 6.71008 14.0724C6.69919 14.0056 6.60121 13.9599 6.49597 13.9704ZM8.88387 0.5C3.8504 0.5 0 4.20156 0 9.07721C0 12.9756 2.53306 16.3116 6.15121 17.4857C6.61573 17.5665 6.77903 17.2888 6.77903 17.0603C6.77903 16.8424 6.76814 15.6402 6.76814 14.902C6.76814 14.902 4.22782 15.4293 3.69435 13.8544C3.69435 13.8544 3.28065 12.8315 2.68548 12.5678C2.68548 12.5678 1.85444 12.016 2.74355 12.0265C2.74355 12.0265 3.64718 12.0968 4.14435 12.9334C4.93911 14.2903 6.27097 13.9001 6.78992 13.6681C6.87339 13.1057 7.10927 12.7155 7.37056 12.4835C5.34194 12.2655 3.29516 11.9808 3.29516 8.59913C3.29516 7.63244 3.57097 7.14733 4.15161 6.52865C4.05726 6.30016 3.74879 5.35807 4.24597 4.1418C5.00444 3.91331 6.75 5.09091 6.75 5.09091C7.47581 4.89406 8.25605 4.79212 9.02903 4.79212C9.80202 4.79212 10.5823 4.89406 11.3081 5.09091C11.3081 5.09091 13.0536 3.90979 13.8121 4.1418C14.3093 5.36159 14.0008 6.30016 13.9065 6.52865C14.4871 7.15085 14.8427 7.63595 14.8427 8.59913C14.8427 11.9913 12.7052 12.262 10.6766 12.4835C11.0105 12.7612 11.2935 13.2885 11.2935 14.1146C11.2935 15.2992 11.2827 16.7651 11.2827 17.0533C11.2827 17.2818 11.4496 17.5595 11.9105 17.4786C15.5395 16.3116 18 12.9756 18 9.07721C18 4.20156 13.9173 0.5 8.88387 0.5ZM3.52742 12.6241C3.48024 12.6592 3.49113 12.7401 3.55282 12.8069C3.61089 12.8631 3.69435 12.8877 3.74153 12.842C3.78871 12.8069 3.77782 12.726 3.71613 12.6592C3.65806 12.603 3.5746 12.5784 3.52742 12.6241ZM3.13548 12.3394C3.11008 12.3851 3.14637 12.4413 3.21895 12.4765C3.27702 12.5116 3.3496 12.5011 3.375 12.4518C3.4004 12.4061 3.36411 12.3499 3.29153 12.3147C3.21895 12.2937 3.16089 12.3042 3.13548 12.3394ZM4.31129 13.5908C4.25323 13.6365 4.275 13.7419 4.35847 13.8087C4.44194 13.8896 4.54718 13.9001 4.59435 13.8439C4.64153 13.7982 4.61976 13.6927 4.54718 13.6259C4.46734 13.5451 4.35847 13.5345 4.31129 13.5908ZM3.89758 13.074C3.83952 13.1092 3.83952 13.2006 3.89758 13.2814C3.95565 13.3623 4.05363 13.3974 4.10081 13.3623C4.15887 13.3166 4.15887 13.2252 4.10081 13.1443C4.05 13.0635 3.95565 13.0283 3.89758 13.074Z" fill="black"/>
</svg>
