<svg width="18" height="18" viewBox="0 0 18 18" fill="none" xmlns="http://www.w3.org/2000/svg">
<rect width="18" height="18" fill="white"/>
<path d="M12.1811 5.53917C12.3905 5.53917 12.5935 5.54921 12.7964 5.57599C12.2531 2.95157 9.50073 1 6.372 1C2.86364 1 0 3.43696 0 6.53671C0 8.32426 0.958909 9.80049 2.54945 10.942L1.91782 12.9036L4.14327 11.7621C4.94182 11.9228 5.57673 12.0868 6.37527 12.0868C6.57818 12.0868 6.77127 12.0768 6.97418 12.06C6.84327 11.6282 6.77127 11.1696 6.77127 10.6943C6.768 7.85226 9.15709 5.53917 12.1811 5.53917V5.53917ZM8.76109 3.76836C9.23564 3.76836 9.55309 4.09306 9.55309 4.58514C9.55309 5.07052 9.23564 5.39522 8.76109 5.39522C8.27673 5.39522 7.80218 5.07052 7.80218 4.58514C7.80545 4.09306 8.28 3.76836 8.76109 3.76836ZM4.29709 5.39522C3.82255 5.39522 3.33818 5.07052 3.33818 4.58514C3.33818 4.08971 3.82255 3.76836 4.29709 3.76836C4.78145 3.76836 5.09564 4.09306 5.09564 4.58514C5.09564 5.07387 4.78145 5.39522 4.29709 5.39522ZM18 10.6206C18 8.01294 15.4505 5.89065 12.5869 5.89065C9.55309 5.89065 7.17382 8.01294 7.17382 10.6206C7.17382 13.2283 9.55636 15.3506 12.5869 15.3506C13.2185 15.3506 13.86 15.1799 14.5047 15.0192L16.2524 16L15.768 14.3731C17.0509 13.389 18 12.0868 18 10.6206ZM10.8295 9.80049C10.512 9.80049 10.1978 9.47579 10.1978 9.14439C10.1978 8.81968 10.5153 8.49833 10.8295 8.49833C11.3138 8.49833 11.628 8.82303 11.628 9.14439C11.628 9.47913 11.3105 9.80049 10.8295 9.80049ZM14.3345 9.80049C14.0171 9.80049 13.7029 9.47579 13.7029 9.14439C13.7029 8.81968 14.0204 8.49833 14.3345 8.49833C14.8091 8.49833 15.1331 8.82303 15.1331 9.14439C15.1364 9.47913 14.8091 9.80049 14.3345 9.80049Z" fill="black"/>
</svg>
