<svg width="18" height="18" viewBox="0 0 18 18" fill="none" xmlns="http://www.w3.org/2000/svg">
<rect width="18" height="18" fill="white"/>
<path fill-rule="evenodd" clip-rule="evenodd" d="M9 0C13.9706 0 18 4.02944 18 9C18 13.9706 13.9706 18 9 18C4.02944 18 0 13.9706 0 9C0 4.02944 4.02944 0 9 0ZM7.17911 14C7.91367 13.9325 8.63268 13.7393 9.16206 13.5479C9.69188 13.356 10.1276 13.1096 10.47 12.8076C10.8081 12.512 11.0692 12.1386 11.2307 11.7195C11.395 11.2958 11.4772 10.8069 11.4772 10.2526V7.51511C11.4772 6.8978 11.4794 6.36264 11.4839 5.9101C11.4883 5.4571 11.491 5.04852 11.491 4.68302L11.0442 4H8.39953C8.40397 4.3695 8.4093 4.76698 8.4164 5.19288C8.42306 5.61878 8.42617 6.19213 8.42617 6.91336C8.42617 7.32771 8.42528 7.73008 8.42306 8.11956C8.42084 8.50949 8.41951 8.87988 8.41951 9.23161C8.41951 9.66862 8.36222 10.0199 8.24764 10.2859C8.13217 10.552 7.96208 10.7727 7.73691 10.9481C7.51538 11.115 7.26256 11.2357 6.99347 11.3029C6.66677 11.3852 6.33484 11.4452 6 11.4824L6.66404 13.6603L7.17911 14Z" fill="black"/>
</svg>
