<svg width="18" height="18" viewBox="0 0 18 18" fill="none" xmlns="http://www.w3.org/2000/svg">
<rect width="18" height="18" fill="white"/>
<path d="M16.6969 7.10926C16.8187 7.0088 17 7.10278 17 7.26157V13.8889C17 14.7477 16.3281 15.4444 15.5 15.4444H2.5C1.67188 15.4444 1 14.7477 1 13.8889V7.26481C1 7.10278 1.17812 7.01204 1.30312 7.1125C2.00312 7.67639 2.93125 8.39259 6.11875 10.794C6.77813 11.2931 7.89062 12.3431 9 12.3366C10.1156 12.3463 11.25 11.2736 11.8844 10.794C15.0719 8.39259 15.9969 7.67315 16.6969 7.10926ZM9 11.2963C9.725 11.3093 10.7687 10.35 11.2937 9.95463C15.4406 6.8338 15.7562 6.56157 16.7125 5.7838C16.8937 5.63796 17 5.41111 17 5.1713V4.55556C17 3.69676 16.3281 3 15.5 3H2.5C1.67188 3 1 3.69676 1 4.55556V5.1713C1 5.41111 1.10625 5.63472 1.2875 5.7838C2.24375 6.55833 2.55938 6.8338 6.70625 9.95463C7.23125 10.35 8.275 11.3093 9 11.2963Z" fill="black"/>
</svg>
